<?xml version="1.0" encoding="utf-8"?>
<!-- Generator: Adobe Illustrator 19.1.0, SVG Export Plug-In . SVG Version: 6.00 Build 0)  -->
<svg version="1.1" id="Layer_1" xmlns="http://www.w3.org/2000/svg" xmlns:xlink="http://www.w3.org/1999/xlink" x="0px" y="0px"
	 viewBox="-297 389 16 16" style="enable-background:new -297 389 16 16;" xml:space="preserve">
<style type="text/css">
	.st0{fill:#FCFCFC;}
</style>
<path class="st0" d="M-289,393.8c0.5,0,1.4-0.7,2.7-0.7c2.1,0,2.9,1.5,2.9,1.5s-1.6,0.8-1.6,2.8c0,2.2,2.1,3.1,2.1,3.1
	s-1.4,3.9-3.3,3.9c-0.8,0-1.6-0.6-2.4-0.6c-0.9,0-1.9,0.7-2.4,0.7c-1.8,0-3.9-3.7-3.9-6.8c0-3,1.9-4.6,3.6-4.6
	C-290.5,393.1-289.6,393.8-289,393.8z M-288.5,390.8c1-1.3,2.3-1.3,2.3-1.3s0.2,1.2-0.7,2.4c-1,1.2-2.2,1-2.2,1
	S-289.4,391.9-288.5,390.8L-288.5,390.8z"/>
</svg>
